<svg width="2065" height="2043" viewBox="0 0 2065 2043" fill="none" xmlns="http://www.w3.org/2000/svg">
<path fill-rule="evenodd" clip-rule="evenodd" d="M210.359 208.039L302.05 200.198L344.686 180.888L371.268 232.036L437.136 255.029L522.187 192.795L524.363 168.175L472.564 84.7288L478.916 67.6174L512.293 90.5367L583.996 80.7759L690.093 42.8664L701.222 11L727.653 12.3956L726.254 43.134L753.891 70.872L718.084 146.921L785.881 223.84L874.081 181.063L940.102 183.457L927.877 156.952L995.578 152.132L1033 169.759L1107.46 169.075L1161.5 52.1588H1181.02L1227.55 166.975L1270.52 210.999L1220.03 257.744L1255.58 279.649L1385.8 310.058L1528.18 364.81L1570.86 423.715L1615.26 407.261L1651.97 432.35L1796.62 448.531L1928.17 568.563L2024.5 586.196L2054 671.511L2040.51 745.687L1991.07 819.166L1912.93 876.546L1848.48 987.358L1823 970.387L1798.58 1077.08L1809.01 1124.71L1779.3 1234.85L1718.27 1374.75L1669.33 1405.88L1671.74 1444.47L1547.58 1484.86L1493.34 1506.83L1334.72 1585.22L1299.82 1636.96L1314.1 1704.35L1233.22 1826.42L1181.32 1912.8L1161.5 1879.63L1134.14 1927.41L1132.42 1953.33L1080.13 2029L1057.29 2015.63L1079.61 1976.16L981.182 1879.27L958.124 1895.02L920.09 1837.82L899.538 1852.74L878.426 1841.96L966.791 1739.31L1067.46 1676.84L1049.84 1600.61L1021.05 1613.29L1012.16 1607.47L1029.28 1514.78L978.193 1524.03L968.397 1448.83L857.162 1428.37L840.938 1317.6L870.144 1245.68L870.186 1199.08L827.726 1182.31L823.162 1144.06L741.245 1129.74L721.415 1063.63L720.277 999.746L674.859 994.811L467.87 909.388L454.732 856.023L467.992 820.052L439.816 791.613L306.487 880.089L195.054 871.722L191.758 804.176L151.316 838.954L81.3525 807.192L12 699.312L44.1898 650.902L64.4702 570.732L162.48 524.115L207.395 528.887L233.915 357.996L199.596 312.567L197.535 275.681L226.476 254.868L210.359 208.039Z" fill="#01010E" stroke="#383838" stroke-opacity="0.33" stroke-width="20"/>
</svg>
