<svg width="109" height="112" viewBox="0 0 109 112" fill="none" xmlns="http://www.w3.org/2000/svg">
<path d="M55.5426 67.6933L55.44 67.8133C54.9386 68.3867 52.6533 70.72 49.104 70.7146C46.8186 70.7133 43.968 69.7653 40.6373 66.6947L40.3294 66.6173C40.3294 66.6173 40.2627 66.6333 40.1294 66.6613C39.7294 66.744 38.7587 66.9133 37.5347 66.9133C36.04 66.9146 34.1707 66.6613 32.484 65.716C30.7973 64.7706 29.2733 63.148 28.428 60.3173C28.376 60.1427 28.192 60.0413 28.016 60.092L27.896 60.1227C27.6507 60.18 27.0533 60.3 26.3467 60.2987C25.6773 60.3 24.9133 60.192 24.2467 59.8493C23.58 59.504 23 58.9387 22.648 57.9493L22.4453 57.7453L22.1587 57.776L22.0533 57.8373C21.5453 58.1253 19.2666 59.3053 16.5373 59.3027C13.8706 59.2933 10.78 58.2227 8.29069 54.0413L8.08665 53.888L8.02669 53.8707C7.70536 53.7787 6.16936 53.28 4.59069 51.9707C3.01202 50.6587 1.38798 48.5493 0.847982 45.1747C0.722648 44.3893 0.666667 43.6387 0.666667 42.9267C0.666667 40.008 1.59866 37.7027 2.53066 36.1227C2.99733 35.3333 3.46398 34.7253 3.81198 34.3187C3.98531 34.1147 4.12936 33.9613 4.22936 33.8587L4.34264 33.7453L4.38001 33.7107C4.47735 33.6213 4.5133 33.4827 4.47064 33.3573L4.436 33.24C4.368 32.996 4.22799 32.3946 4.22799 31.6453C4.22799 30.8626 4.37864 29.9267 4.90664 29.044C5.43464 28.1613 6.33731 27.3173 7.90931 26.7187C8.03331 26.6707 8.11736 26.5533 8.12402 26.4213C8.12402 26.4213 8.12933 26.284 8.16133 26.0227C8.27199 25.1093 8.70266 22.784 10.256 20.632C11.8133 18.4813 14.464 16.48 19.1493 16.1533C19.2853 16.144 19.4027 16.0507 19.444 15.92L19.4867 15.7947C19.7147 15.1533 20.8773 12.1773 23.6867 9.37734C26.4987 6.57868 30.94 3.94267 37.812 3.94001C39.3826 3.94001 41.0813 4.07865 42.9173 4.38532L43.2027 4.29867L43.3693 4.15065C44.1693 3.46132 47.756 0.662668 52.748 0.666673C55.444 0.668001 58.5587 1.47202 61.92 3.87734L62.256 3.90801L62.304 3.88666C62.5453 3.78266 63.6653 3.34268 65.0467 3.34401C66.8027 3.35601 68.948 4.00399 70.4786 6.98799C70.5466 7.12132 70.6933 7.19333 70.84 7.164L70.976 7.14134C71.2546 7.09868 71.9453 7.00935 72.908 7.00935C76.192 7.01734 82.5534 8.02001 86.632 15.34C86.6974 15.4573 86.8267 15.524 86.96 15.5093L87.092 15.5C87.1827 15.4947 87.3187 15.4893 87.492 15.4893C88.3813 15.488 90.256 15.6347 92.1853 16.6667C94.1147 17.7 96.1147 19.6027 97.3 23.196L97.4907 23.4L97.5493 23.4267C97.8653 23.568 99.3627 24.2947 100.767 25.7933C102.171 27.296 103.487 29.5507 103.488 32.8187L103.487 32.9973L103.629 33.2747L103.657 33.2947C103.971 33.5307 106.709 35.6987 106.708 40.1013C106.708 41.148 106.553 42.324 106.173 43.6373L106.203 43.8947L106.255 43.9907C106.497 44.4573 107.496 46.5613 107.493 49.1307C107.493 50.288 107.293 51.54 106.737 52.792C105.727 55.064 104.752 56.4227 104.043 57.2093C103.687 57.6013 103.397 57.852 103.203 58.0013L102.981 58.1547L102.931 58.1853L102.921 58.1907L102.951 58.248L102.923 58.1907H102.921L102.951 58.248L102.923 58.1907C102.808 58.2467 102.736 58.3653 102.739 58.4933V58.5653C102.739 59.068 102.693 62.14 101.68 65.668C100.668 69.1987 98.6933 73.1653 94.8747 75.528C92.4307 77.0427 89.4187 77.584 86.392 77.584C82.8933 77.584 79.3853 76.8613 76.7587 76.1373C75.4453 75.7747 74.352 75.4133 73.588 75.1413C72.8227 74.8707 72.3947 74.692 72.3934 74.692C72.2227 74.6213 72.028 74.7027 71.9574 74.872C71.8867 75.0427 71.968 75.2373 72.1387 75.308C72.1587 75.3133 79.2147 78.2466 86.392 78.2506C89.4947 78.2493 92.6307 77.7013 95.2267 76.0947C99.2467 73.6027 101.283 69.468 102.321 65.852C103.36 62.232 103.405 59.108 103.405 58.5653V58.484L103.072 58.488L103.221 58.7867C103.297 58.7493 105.279 57.716 107.347 53.0627C107.947 51.7133 108.16 50.3653 108.16 49.1307C108.157 45.9987 106.797 43.5933 106.784 43.5667L106.493 43.7307L106.813 43.8227C107.211 42.4533 107.375 41.2133 107.375 40.1013C107.371 35.0827 104.049 32.7533 104.011 32.728L103.82 33.0013L104.153 33.0053L104.155 32.8187C104.157 29.1347 102.551 26.608 100.955 25.0307C99.356 23.4493 97.7693 22.7947 97.744 22.784L97.6173 23.092L97.9333 22.988C96.704 19.244 94.5667 17.1786 92.4987 16.0786C90.432 14.976 88.452 14.8227 87.492 14.8227C87.1173 14.8227 86.8973 14.8453 86.8867 14.8467L86.9227 15.1786L87.2146 15.016C82.996 7.42932 76.3107 6.33468 72.908 6.34268C71.5707 6.34268 70.728 6.50668 70.712 6.51068L70.776 6.83734L71.0733 6.68532C69.456 3.48265 66.972 2.66401 65.0467 2.67735C63.308 2.67868 61.9986 3.29334 61.9733 3.30401L62.1146 3.60534L62.3093 3.33467C58.8466 0.854669 55.5773 -0.00132597 52.748 1.54133e-06C46.7493 0.00666963 42.772 3.79199 42.7426 3.81599L42.9733 4.05733L43.028 3.728C41.1587 3.41467 39.4226 3.27334 37.812 3.27334C30.2946 3.26934 25.5173 6.37866 22.656 9.48799C19.792 12.596 18.8187 15.692 18.808 15.72L19.1267 15.82L19.104 15.488C13.5466 15.8613 10.584 18.5973 9.07865 21.228C7.56665 23.856 7.46002 26.3627 7.45736 26.392L7.79069 26.4067L7.672 26.0947C5.984 26.7347 4.93867 27.6867 4.33333 28.7013C3.728 29.7173 3.56133 30.78 3.56133 31.6453C3.56133 32.7546 3.83197 33.5493 3.83997 33.572L4.15469 33.4653L3.93066 33.2187C3.90133 33.248 0.00533333 36.7947 0 42.9267C0 43.6733 0.0586562 44.46 0.189323 45.28C0.789323 49.06 2.72267 51.3907 4.5 52.7507C6.27733 54.1133 7.89335 54.5267 7.92135 54.5333L8.00397 54.2107L7.71732 54.3813C10.292 58.7466 13.6853 59.98 16.5373 59.9693C19.8746 59.9653 22.48 58.3573 22.508 58.344L22.3333 58.06L22.0187 58.1707C22.4187 59.312 23.1426 60.0347 23.9426 60.4427C24.7426 60.852 25.6093 60.9653 26.3467 60.9653C27.388 60.9653 28.1813 60.7373 28.2 60.7333L28.108 60.412L27.788 60.508C28.672 63.4853 30.3293 65.28 32.1587 66.2987C33.9867 67.32 35.9667 67.58 37.5347 67.58C39.2494 67.58 40.476 67.2667 40.4934 67.2627L40.412 66.94L40.1853 67.1853C43.6 70.3387 46.6266 71.3827 49.104 71.3813C53.5146 71.372 56.0413 68.132 56.0667 68.104C56.18 67.9587 56.1547 67.7493 56.0107 67.636C55.8653 67.5227 55.656 67.548 55.5426 67.6933Z" fill="white"/>
<path d="M62.784 47.768H45.72V30.7054H62.784V47.768Z" fill="white"/>
<path d="M47.7226 49.3H46.716V29.1747H47.7226V49.3Z" fill="white"/>
<path d="M50.0093 49.3H49.0027V29.1747H50.0093V49.3Z" fill="white"/>
<path d="M52.2974 49.3H51.2907V29.1747H52.2974V49.3Z" fill="white"/>
<path d="M54.584 49.3H53.5773V29.1747H54.584V49.3Z" fill="white"/>
<path d="M56.8694 49.3H55.864V29.1747H56.8694V49.3Z" fill="white"/>
<path d="M59.1574 49.3H58.1507V29.1747H59.1574V49.3Z" fill="white"/>
<path d="M61.444 49.3H60.4373V29.1747H61.444V49.3Z" fill="white"/>
<path d="M64.1427 45.5947V46.6013H44.0173V45.5947H64.1427Z" fill="white"/>
<path d="M64.1427 43.3067V44.3133H44.0173V43.3067H64.1427Z" fill="white"/>
<path d="M64.1427 41.0213V42.0267H44.0173V41.0213H64.1427Z" fill="white"/>
<path d="M64.1427 38.7333V39.74H44.0173V38.7333H64.1427Z" fill="white"/>
<path d="M64.1427 36.4466V37.4533H44.0173V36.4466H64.1427Z" fill="white"/>
<path d="M64.1427 34.16V35.1654H44.0173V34.16H64.1427Z" fill="white"/>
<path d="M64.1427 31.8734V32.8787H44.0173V31.8734H64.1427Z" fill="white"/>
<path d="M18.8973 16.0627L36.436 32.6187L36.6654 32.7094H46.0054C46.1894 32.7094 46.3387 32.56 46.3387 32.376C46.3387 32.192 46.1894 32.0427 46.0054 32.0427H36.7973L19.3547 15.5774C19.2214 15.452 19.0107 15.4573 18.884 15.592C18.7573 15.7253 18.764 15.936 18.8973 16.0627Z" fill="white"/>
<path d="M14.8413 16.88L33.096 34.9L33.3307 34.996H46.0053C46.1893 34.996 46.3387 34.8467 46.3387 34.6627C46.3387 34.4787 46.1893 34.3293 46.0053 34.3293H33.468L15.3093 16.4054C15.1786 16.276 14.968 16.2774 14.8387 16.408C14.7093 16.54 14.7107 16.7507 14.8413 16.88Z" fill="white"/>
<path d="M62.784 39.5707H73.604L102.889 58.7667C103.043 58.868 103.249 58.8254 103.351 58.6707C103.452 58.5174 103.408 58.3107 103.255 58.2094L73.8854 38.9587L73.7027 38.904H62.784C62.6 38.904 62.4507 39.0534 62.4507 39.2374C62.4507 39.4214 62.6 39.5707 62.784 39.5707Z" fill="white"/>
<path d="M7.54676 26.6333L21.5988 41.7507L21.8427 41.856H45.7201C45.9041 41.856 46.0534 41.708 46.0534 41.5227C46.0534 41.3387 45.9041 41.1907 45.7201 41.1907L21.9881 41.1893L8.03478 26.18C7.90945 26.0453 7.69875 26.0373 7.56408 26.1627C7.42808 26.288 7.42143 26.4987 7.54676 26.6333Z" fill="white"/>
<path d="M3.90931 33.6893L13.3813 44.036L13.628 44.144H45.72C45.904 44.144 46.0533 43.9947 46.0533 43.8107C46.0533 43.6267 45.904 43.4774 45.72 43.4774H13.7747L4.40137 33.24C4.27603 33.104 4.06536 33.0947 3.92936 33.2187C3.79469 33.3427 3.78531 33.5547 3.90931 33.6893Z" fill="white"/>
<path d="M15.6533 26.7107H24.9373C25.1213 26.7107 25.2707 26.5614 25.2707 26.3774C25.2707 26.1934 25.1213 26.044 24.9373 26.044H15.6533C15.4693 26.044 15.32 26.1934 15.32 26.3774C15.32 26.5614 15.4693 26.7107 15.6533 26.7107Z" fill="white"/>
<path d="M21.8574 32.3613L21.4334 41.508C21.424 41.692 21.5667 41.848 21.7507 41.856C21.9347 41.8653 22.0907 41.7227 22.0987 41.5387L22.5227 32.392C22.532 32.208 22.3894 32.052 22.2054 32.0427C22.0214 32.0347 21.8654 32.1773 21.8574 32.3613Z" fill="white"/>
<path d="M15.0866 26.4067C15.0866 26.868 14.7133 27.2413 14.252 27.2427C13.7893 27.2413 13.416 26.868 13.416 26.4067C13.416 25.9453 13.7893 25.572 14.252 25.5707C14.7133 25.572 15.0866 25.9453 15.0866 26.4067H15.7533C15.7533 25.5773 15.0813 24.904 14.252 24.904C13.4213 24.904 12.7493 25.5773 12.7493 26.4067C12.7493 27.2373 13.4213 27.9093 14.252 27.9093C15.0813 27.9093 15.7533 27.2373 15.7533 26.4067H15.0866Z" fill="white"/>
<path d="M37.9361 19.6253H47.2187C47.4027 19.6253 47.5521 19.476 47.5521 19.292C47.5521 19.108 47.4027 18.9586 47.2187 18.9586H37.9361C37.7521 18.9586 37.6027 19.108 37.6027 19.292C37.6027 19.476 37.7521 19.6253 37.9361 19.6253Z" fill="white"/>
<path d="M37.3694 19.3213C37.3694 19.7827 36.996 20.156 36.5334 20.1573C36.072 20.156 35.6987 19.7827 35.6974 19.3213C35.6987 18.86 36.072 18.4867 36.5334 18.4853C36.996 18.4867 37.3694 18.86 37.3694 19.3213H38.036C38.036 18.492 37.364 17.8187 36.5334 17.8187C35.704 17.8187 35.032 18.492 35.0307 19.3213C35.032 20.152 35.704 20.824 36.5334 20.824C37.364 20.824 38.036 20.152 38.036 19.3213H37.3694Z" fill="white"/>
<path d="M70.2253 25.2893H60.9414C60.7574 25.2893 60.608 25.4387 60.608 25.6227C60.608 25.8067 60.7574 25.956 60.9414 25.956H70.2253C70.4093 25.956 70.5587 25.8067 70.5587 25.6227C70.5587 25.4387 70.4093 25.2893 70.2253 25.2893Z" fill="white"/>
<path d="M70.1253 25.6533C70.1253 26.4827 70.7973 27.1547 71.6267 27.1547C72.456 27.1547 73.1293 26.4827 73.1293 25.6533C73.1293 24.8227 72.456 24.1507 71.6267 24.1507C70.7973 24.1507 70.1253 24.8227 70.1253 25.6533H70.792C70.792 25.1907 71.1667 24.8173 71.6267 24.8173C72.088 24.8173 72.4613 25.1907 72.4627 25.6533C72.4613 26.1133 72.088 26.4867 71.6267 26.488C71.1667 26.4867 70.792 26.1133 70.792 25.6533H70.1253Z" fill="white"/>
<path d="M80.9107 54.6533H71.6267C71.4427 54.6533 71.2934 54.8027 71.2934 54.9867C71.2934 55.1707 71.4427 55.32 71.6267 55.32H80.9107C81.0947 55.32 81.244 55.1707 81.244 54.9867C81.244 54.8027 81.0947 54.6533 80.9107 54.6533Z" fill="white"/>
<path d="M80.8093 55.0173C80.8107 55.8467 81.4827 56.5187 82.312 56.52C83.1427 56.5187 83.8147 55.8467 83.8147 55.0173C83.8147 54.1867 83.1427 53.5147 82.312 53.5147C81.4827 53.5147 80.8107 54.1867 80.8093 55.0173H81.476C81.4773 54.5547 81.8507 54.1813 82.312 54.1813C82.7747 54.1813 83.148 54.5547 83.148 55.0173C83.148 55.4787 82.7747 55.852 82.312 55.8533C81.8507 55.852 81.4773 55.4787 81.476 55.0173H80.8093Z" fill="white"/>
<path d="M62.4507 54.6334C62.4507 55.4627 63.1227 56.1347 63.9534 56.1347C64.7827 56.1347 65.4547 55.4627 65.4547 54.6334C65.4547 53.8027 64.7827 53.1307 63.9534 53.1307C63.1227 53.1307 62.4507 53.8027 62.4507 54.6334H63.1174C63.1187 54.1707 63.492 53.7973 63.9534 53.7973C64.4134 53.7973 64.7867 54.1707 64.7881 54.6334C64.7867 55.0947 64.4134 55.468 63.9534 55.468C63.492 55.468 63.1187 55.0947 63.1174 54.6334H62.4507Z" fill="white"/>
<path d="M87.1267 63.4707H72.2654C72.0814 63.4707 71.9321 63.62 71.9321 63.804C71.9321 63.988 72.0814 64.1373 72.2654 64.1373H87.1267C87.3107 64.1373 87.4601 63.988 87.4601 63.804C87.4601 63.62 87.3107 63.4707 87.1267 63.4707Z" fill="white"/>
<path d="M86.74 63.852C86.74 64.7667 87.4814 65.5093 88.396 65.5093C89.3107 65.5093 90.052 64.7667 90.052 63.852C90.052 62.9373 89.3107 62.196 88.396 62.1947C87.4814 62.196 86.74 62.9373 86.74 63.852H87.4067C87.4067 63.3053 87.8494 62.8627 88.396 62.8613C88.9427 62.8627 89.384 63.3053 89.3854 63.852C89.384 64.3987 88.9414 64.8413 88.396 64.8427C87.8494 64.8413 87.4067 64.3987 87.4067 63.852H86.74Z" fill="white"/>
<path d="M76.4348 109.356C76.4348 110.271 77.1761 111.011 78.0907 111.012C79.0067 111.012 79.7481 110.271 79.7494 109.356C79.7494 108.44 79.0067 107.697 78.0907 107.697C77.1761 107.697 76.4348 108.44 76.4348 109.356H77.1014C77.1028 108.808 77.5454 108.365 78.0907 108.364C78.6387 108.365 79.0814 108.808 79.0827 109.356C79.0814 109.901 78.6387 110.344 78.0907 110.345C77.5454 110.344 77.1028 109.901 77.1014 109.356H76.4348Z" fill="white"/>
<path d="M69.9706 104.841C69.9706 105.756 70.712 106.497 71.6267 106.497C72.5427 106.497 73.284 105.756 73.284 104.841C73.284 103.927 72.5427 103.185 71.6267 103.185C70.712 103.185 69.9706 103.927 69.9706 104.841H70.6373C70.6373 104.295 71.08 103.852 71.6267 103.852C72.1747 103.852 72.616 104.295 72.6173 104.841C72.616 105.387 72.1747 105.829 71.6267 105.831C71.08 105.829 70.6373 105.387 70.6373 104.841H69.9706Z" fill="white"/>
<path d="M60.8574 101.452C60.8574 102.367 61.5987 103.108 62.5134 103.108C63.428 103.108 64.1693 102.367 64.1693 101.452C64.1693 100.536 63.428 99.7946 62.5134 99.7946C61.5987 99.7946 60.8574 100.536 60.8574 101.452H61.524C61.524 100.904 61.9667 100.461 62.5134 100.461C63.0587 100.461 63.5013 100.904 63.5027 101.452C63.5013 101.997 63.0587 102.44 62.5134 102.441C61.9667 102.44 61.524 101.997 61.524 101.452H60.8574Z" fill="white"/>
<path d="M53.3506 107.223C53.3506 108.137 54.092 108.879 55.008 108.879C55.9227 108.879 56.664 108.137 56.664 107.223C56.664 106.308 55.9227 105.567 55.008 105.567C54.092 105.567 53.3506 106.308 53.3506 107.223H54.0173C54.0173 106.676 54.46 106.233 55.008 106.233C55.5547 106.233 55.996 106.676 55.9973 107.223C55.996 107.769 55.5547 108.211 55.008 108.212C54.46 108.211 54.0173 107.768 54.0173 107.223H53.3506Z" fill="white"/>
<path d="M92.992 45.216C92.992 46.0467 93.6653 46.7187 94.4947 46.7187C95.3253 46.7187 95.9973 46.0467 95.9973 45.216C95.9973 44.3853 95.3253 43.7133 94.4947 43.7133C93.6653 43.7133 92.992 44.3853 92.992 45.216H93.6587C93.66 44.7547 94.0333 44.3813 94.4947 44.38C94.956 44.3813 95.3293 44.7547 95.3307 45.216C95.3293 45.6773 94.956 46.0507 94.4947 46.052C94.0333 46.0507 93.66 45.6773 93.6587 45.216H92.992Z" fill="white"/>
<path d="M23.0267 30.7053C23.0254 31.1667 22.652 31.54 22.1907 31.5413C21.7307 31.54 21.356 31.1667 21.356 30.7053C21.356 30.244 21.7307 29.8707 22.1907 29.8693C22.652 29.8707 23.0254 30.244 23.0267 30.7053H23.6934C23.692 29.876 23.02 29.2027 22.1907 29.2027C21.3614 29.204 20.6893 29.876 20.6893 30.7053C20.6893 31.5347 21.3614 32.2067 22.1907 32.208C23.02 32.208 23.692 31.5347 23.6934 30.7053H23.0267Z" fill="white"/>
<path d="M24.604 53.848C24.604 54.3093 24.2294 54.6827 23.768 54.684C23.3067 54.6827 22.9334 54.3093 22.932 53.848C22.9334 53.3853 23.3067 53.012 23.768 53.012C24.2294 53.012 24.604 53.3853 24.604 53.848H25.2707C25.2707 53.0173 24.5987 52.3453 23.768 52.3453C22.9387 52.3453 22.2654 53.0173 22.2654 53.848C22.2654 54.6773 22.9387 55.3493 23.768 55.3507C24.5987 55.3493 25.2707 54.6773 25.2707 53.848H24.604Z" fill="white"/>
<path d="M46.0054 45.764H35.8854C35.7627 45.764 35.6507 45.8307 35.592 45.9387L27.8147 60.2533C27.7267 60.4147 27.7867 60.6174 27.9494 60.7054C28.1107 60.7934 28.3134 60.7334 28.4014 60.572L36.084 46.4307H46.0054C46.1894 46.4307 46.3387 46.2813 46.3387 46.0973C46.3387 45.9133 46.1894 45.764 46.0054 45.764Z" fill="white"/>
<path d="M24.72 52.832L29.3173 43.964C29.4013 43.8014 29.3373 43.6 29.1747 43.5147C29.0107 43.4307 28.8093 43.4947 28.7253 43.6573L24.128 52.5253C24.044 52.688 24.108 52.8894 24.2706 52.9747C24.4346 53.0587 24.636 52.9947 24.72 52.832Z" fill="white"/>
<path d="M10.404 51.5293C10.4026 51.9893 10.0294 52.364 9.56804 52.364C9.1067 52.364 8.73204 51.9893 8.73204 51.5293C8.73204 51.068 9.1067 50.6947 9.56804 50.6933C10.0294 50.6947 10.4026 51.068 10.404 51.5293H11.0706C11.0706 50.7 10.3974 50.028 9.56804 50.0267C8.73737 50.028 8.06537 50.7 8.06537 51.5293C8.06537 52.3587 8.73737 53.0307 9.56804 53.0307C10.3974 53.0307 11.0706 52.3587 11.0706 51.5293H10.404Z" fill="white"/>
<path d="M10.552 50.5133L13.9467 43.964C14.032 43.8014 13.968 43.6 13.804 43.5147C13.6413 43.4307 13.44 43.4947 13.3547 43.6574L9.96001 50.2067C9.87601 50.3707 9.93999 50.572 10.1027 50.656C10.2667 50.7414 10.468 50.6773 10.552 50.5133Z" fill="white"/>
<path d="M47.5521 30.7054V14.98L47.5294 14.8587L43.284 3.93603C43.216 3.76537 43.0241 3.68001 42.8521 3.74668C42.6801 3.81335 42.5947 4.00671 42.6627 4.17738L46.8854 15.0427V30.7054C46.8854 30.8894 47.0347 31.0387 47.2187 31.0387C47.4027 31.0387 47.5521 30.8894 47.5521 30.7054Z" fill="white"/>
<path d="M61.8533 3.40004L53.8187 13.5907L53.748 13.7974V30.7054C53.748 30.8894 53.8973 31.0387 54.0813 31.0387C54.2653 31.0387 54.4147 30.8894 54.4147 30.7054V13.912L62.376 3.81202C62.4906 3.66801 62.4654 3.45871 62.3214 3.34405C62.176 3.23071 61.9667 3.2547 61.8533 3.40004Z" fill="white"/>
<path d="M70.508 6.6387L60.6733 19.956L60.608 20.1534V30.7054C60.608 30.8894 60.7574 31.0387 60.9414 31.0387C61.1254 31.0387 61.2747 30.8894 61.2747 30.7054V20.2627L71.044 7.0347C71.1534 6.8867 71.1227 6.6787 70.9747 6.56937C70.8267 6.46003 70.6174 6.49071 70.508 6.6387Z" fill="white"/>
<path d="M86.6467 14.992L73.5587 34.3293H62.784C62.6 34.3293 62.4507 34.4787 62.4507 34.6627C62.4507 34.8467 62.6 34.996 62.784 34.996H73.736L74.012 34.8493L87.1987 15.3653C87.3027 15.212 87.2627 15.0054 87.1107 14.9027C86.9574 14.7987 86.7507 14.8387 86.6467 14.992Z" fill="white"/>
<path d="M97.3454 22.8987L87.58 36.616H62.784C62.6 36.616 62.4507 36.7653 62.4507 36.9493C62.4507 37.1333 62.6 37.2827 62.784 37.2827H87.7521L88.0227 37.1427L97.8894 23.2853C97.996 23.1347 97.96 22.9267 97.8107 22.82C97.66 22.7133 97.452 22.748 97.3454 22.8987Z" fill="white"/>
<path d="M103.629 32.468L94.908 44.1133C94.7973 44.2613 94.828 44.4707 94.9746 44.58C95.1226 44.6907 95.3306 44.6613 95.4413 44.5133L104.163 32.868C104.273 32.7213 104.243 32.512 104.096 32.4013C103.948 32.292 103.74 32.3213 103.629 32.468Z" fill="white"/>
<path d="M99.2241 51.4667C99.2241 52.2973 99.8961 52.9693 100.727 52.9693C101.556 52.9693 102.229 52.2973 102.229 51.4667C102.229 50.6373 101.556 49.9653 100.727 49.9653C99.8961 49.9653 99.2241 50.6373 99.2241 51.4667H99.8907C99.8921 51.0053 100.265 50.632 100.727 50.632C101.188 50.632 101.561 51.0053 101.563 51.4667C101.561 51.9293 101.188 52.3027 100.727 52.3027C100.265 52.3027 99.8921 51.9293 99.8907 51.4667H99.2241Z" fill="white"/>
<path d="M106.327 43.108L101.092 50.0987C100.981 50.2453 101.011 50.4547 101.159 50.5653C101.305 50.6747 101.515 50.6453 101.625 50.4973L106.86 43.5067C106.971 43.36 106.941 43.1507 106.793 43.04C106.647 42.9307 106.437 42.96 106.327 43.108Z" fill="white"/>
<path d="M62.784 46.4307H69.9147L71.9334 75.024C71.9467 75.2067 72.1054 75.3453 72.2894 75.332C72.4734 75.32 72.6107 75.16 72.5987 74.976L70.5574 46.0747C70.5454 45.9 70.4 45.764 70.2254 45.764H62.784C62.6 45.764 62.4507 45.9133 62.4507 46.0973C62.4507 46.2813 62.6 46.4307 62.784 46.4307Z" fill="white"/>
<path d="M40.708 67.092L46.92 54.9667H62.4747C62.66 54.9667 62.808 54.8173 62.808 54.6333C62.808 54.448 62.66 54.3 62.4747 54.3H46.716C46.5907 54.3 46.476 54.3693 46.42 54.4813L40.1146 66.788C40.0306 66.952 40.096 67.1534 40.26 67.2374C40.424 67.32 40.624 67.256 40.708 67.092Z" fill="white"/>
<path d="M55.532 61.3387L56.6333 80.688L53.4587 83.5774L53.3506 83.84L54.4187 105.595C54.428 105.779 54.584 105.92 54.768 105.911C54.952 105.901 55.0933 105.745 55.084 105.561L54.024 83.9653L57.2 81.0747L57.308 80.8094L56.1973 61.3013C56.1867 61.1174 56.0293 60.9773 55.8453 60.988C55.6613 60.9973 55.5214 61.156 55.532 61.3387Z" fill="white"/>
<path d="M59.94 60.8054L62.18 100.147C62.1907 100.331 62.348 100.471 62.532 100.46C62.716 100.449 62.856 100.292 62.8453 100.108L60.6053 60.768C60.5947 60.584 60.4373 60.4427 60.2533 60.4533C60.0693 60.464 59.9293 60.6214 59.94 60.8054Z" fill="white"/>
<path d="M63.7254 60.8053L65.0947 84.832C65.1027 84.9747 65.2 85.0947 65.3373 85.1333L70.6321 86.616L71.2934 103.531C71.3001 103.715 71.456 103.859 71.64 103.851C71.8227 103.844 71.9667 103.689 71.9601 103.505L71.2894 86.348C71.2827 86.2027 71.1853 86.0787 71.0453 86.04L65.7467 84.556L64.392 60.768C64.3814 60.584 64.224 60.4427 64.04 60.4533C63.856 60.464 63.716 60.6213 63.7254 60.8053Z" fill="white"/>
<path d="M67.8614 60.5667L69.0147 80.84C69.0227 80.9867 69.1254 81.1093 69.2667 81.1453L75.9533 82.8067L77.7587 108.055C77.772 108.239 77.9307 108.377 78.1147 108.364C78.2987 108.351 78.4374 108.191 78.424 108.008L76.6014 82.5173C76.5907 82.3746 76.488 82.2533 76.348 82.2186L69.6667 80.5573L68.5267 60.5293C68.5161 60.3453 68.3587 60.2053 68.1747 60.2146C67.9907 60.2253 67.8507 60.3827 67.8614 60.5667Z" fill="white"/>
</svg>
